<?xml version="1.0" encoding="UTF-8"?>
<svg version="1.1" xmlns="http://www.w3.org/2000/svg" width="512" height="512">
<path d="M0 0 C0.74883453 -0.00570007 1.49766907 -0.01140015 2.26919556 -0.01727295 C3.85083631 -0.02667245 5.43249621 -0.0332367 7.01416016 -0.03710938 C9.37309514 -0.0467083 11.73111653 -0.07773414 14.08984375 -0.109375 C28.08854036 -0.20779603 41.49788798 1.70728581 54.9140625 5.828125 C55.73865967 6.08045898 56.56325684 6.33279297 57.4128418 6.59277344 C72.54579379 11.43324605 86.27916877 18.79217348 99.0390625 28.203125 C99.96589844 28.88632813 100.89273438 29.56953125 101.84765625 30.2734375 C133.52321723 55.03026525 153.47598271 90.14578172 159.2890625 129.828125 C163.93572041 169.14148941 153.37445391 205.46432313 131.79638672 238.08154297 C113.84602337 265.33844643 102.53079405 295.86520995 98.0390625 328.203125 C97.95030853 328.83721283 97.86155457 329.47130066 97.77011108 330.12460327 C96.80071108 338.16950527 96.87235251 346.23563716 96.83983231 354.32603455 C96.82790271 357.03485027 96.80841897 359.74351638 96.78671265 362.45227051 C96.72554488 370.14700295 96.67107082 377.84171347 96.63769531 385.53662109 C96.61665965 390.26210757 96.58129863 394.9873087 96.53693771 399.71263123 C96.52286299 401.50179169 96.51407474 403.29100248 96.51088333 405.08021545 C96.48410744 418.64626975 96.13246735 430.03192897 86.0390625 440.203125 C77.50782187 447.13197609 70.09602472 448.50250544 59.31738281 448.49365234 C57.55525955 448.50372818 57.55525955 448.50372818 55.75753784 448.51400757 C51.87737792 448.5329912 47.99739097 448.53691213 44.1171875 448.5390625 C42.77578404 448.541911 41.43438127 448.54510315 40.09297943 448.54863358 C33.06587515 448.56711815 26.03884654 448.57530643 19.01171875 448.57373047 C12.48263423 448.57253044 5.95388102 448.59360919 -0.57511973 448.6252178 C-6.19744683 448.65145762 -11.81966625 448.66209451 -17.44205403 448.66081965 C-20.79259398 448.66031213 -24.14260594 448.66774405 -27.49312592 448.68717575 C-31.23625373 448.70685006 -34.97853723 448.70099062 -38.72167969 448.68896484 C-39.81709076 448.70020386 -40.91250183 448.71144287 -42.04110718 448.72302246 C-51.95208457 448.64242653 -59.91708742 446.06898963 -67.20703125 439.19140625 C-73.76432904 431.75785486 -76.26765077 423.04840621 -76.23217773 413.24609375 C-76.23740448 412.48222351 -76.24263123 411.71835327 -76.24801636 410.93133545 C-76.25820976 409.28089433 -76.26402858 407.63042149 -76.26589775 405.97994995 C-76.26959761 403.34333813 -76.2864309 400.70709059 -76.30665588 398.07055664 C-76.36166072 390.57640479 -76.3923926 383.08219655 -76.41723633 375.58789062 C-76.36222359 345.76134017 -76.36222359 345.76134017 -79.9609375 316.203125 C-80.18499268 315.0054248 -80.40904785 313.80772461 -80.63989258 312.57373047 C-81.23214889 309.73457515 -81.90328156 306.94303664 -82.6484375 304.140625 C-82.90334961 303.15932617 -83.15826172 302.17802734 -83.42089844 301.16699219 C-90.46612626 274.91362829 -102.19047704 251.98410524 -117.14160156 229.42138672 C-138.85763986 196.59138322 -144.60367212 155.40927571 -136.9609375 117.203125 C-129.06181104 79.9807878 -105.66954858 45.3229076 -73.82910156 24.39990234 C-51.9821256 10.40436181 -26.24830838 0.15981743 0 0 Z " fill="#010101" transform="translate(245.9609375,63.796875)"/>
<path d="M0 0 C0.00546844 1.01358078 0.00546844 1.01358078 0.01104736 2.04763794 C0.05289738 9.08842205 0.12226138 16.12855582 0.20751953 23.16894531 C0.23572378 25.79550671 0.25694096 28.4221529 0.27099609 31.04882812 C0.292432 34.82726434 0.33908948 38.60468163 0.390625 42.3828125 C0.39185364 43.55490265 0.39308228 44.7269928 0.39434814 45.93460083 C0.50600645 52.16733552 0.6045332 56.37101479 5 61 C8.47845922 62.43336841 8.47845922 62.43336841 12.375 63.125 C20.21141614 64.77394528 25.34742958 67.35347083 30 74 C33.01993404 78.99701316 32.5741412 84.34579928 32 90 C30.25544523 96.28875432 26.2789428 100.35644722 21 104 C17.77532546 105.78205699 15.10850525 106.07431484 11.5 106.3125 C7.79663402 106.64580294 7.06457349 106.94753404 4 109.4375 C0.80320185 113.53339763 0.79842132 116.59389225 0.68359375 121.6328125 C0.6524221 122.76056595 0.6524221 122.76056595 0.62062073 123.91110229 C0.55517295 126.31564085 0.49626262 128.72028967 0.4375 131.125 C0.39431023 132.75391771 0.35069579 134.38282422 0.30664062 136.01171875 C0.19949649 140.00769915 0.09821567 144.00379059 0 148 C-3.96 148 -7.92 148 -12 148 C-12.825 146.205625 -13.65 144.41125 -14.5 142.5625 C-20.33940492 130.93852026 -27.9620912 123.91937228 -40.1875 119.6875 C-51.31712871 116.53881751 -61.47941747 117.1067058 -72 122 C-83.12998337 128.3599905 -89.94501898 136.83505695 -94 149 C-101.26 149 -108.52 149 -116 149 C-119.33813882 132.30930589 -118.32054129 111.45356819 -114 95 C-113.81195801 94.28166992 -113.62391602 93.56333984 -113.43017578 92.82324219 C-108.55445412 75.05032519 -99.9175281 59.01270642 -88 45 C-87.28328125 44.13246094 -86.5665625 43.26492187 -85.828125 42.37109375 C-65.30241903 18.436922 -32.09482259 0 0 0 Z " fill="#FEDD75" transform="translate(245,86)"/>
<path d="M0 0 C29.29089567 0.37499013 57.79931044 19.22362897 77.65234375 39.01953125 C92.01091209 53.85251274 102.5399661 72.36090149 107.9375 92.3125 C108.20820313 93.2725293 108.20820313 93.2725293 108.484375 94.25195312 C111.27894842 104.43892852 112.29745595 114.2500751 112.3125 124.8125 C112.31411133 125.88580566 112.31572266 126.95911133 112.31738281 128.06494141 C112.22083834 134.99361643 111.39833149 141.54123504 109.9375 148.3125 C108.93372314 148.3218457 107.92994629 148.33119141 106.89575195 148.34082031 C103.1586529 148.38080231 99.42237002 148.44658256 95.68579102 148.52001953 C94.07098911 148.54818186 92.45605057 148.56942 90.84106445 148.58349609 C88.51442763 148.60499258 86.18942523 148.65167211 83.86328125 148.703125 C83.14537918 148.70435364 82.42747711 148.70558228 81.68782043 148.70684814 C76.86288849 148.846694 74.29018832 149.82680653 70.9375 153.3125 C70.12937829 156.03041043 70.12937829 156.03041043 70 159 C69.04926935 166.1522856 66.60815209 171.36891938 60.90625 175.94140625 C55.37448228 179.56388847 50.61245226 180.95846312 43.9375 180.3125 C36.57951042 177.64522878 31.86567539 174.24248257 27.86328125 167.50390625 C26.33700718 163.89108029 26.20469039 160.06252715 25.79296875 156.1875 C24.67260435 152.42225707 23.18799871 151.45547559 19.9375 149.3125 C17.0538148 148.6799283 17.0538148 148.6799283 13.98046875 148.703125 C12.31274414 148.65478516 12.31274414 148.65478516 10.61132812 148.60546875 C9.46083984 148.59128906 8.31035156 148.57710937 7.125 148.5625 C5.95517578 148.53285156 4.78535156 148.50320312 3.58007812 148.47265625 C0.69958781 148.40211363 -2.18145984 148.35502458 -5.0625 148.3125 C-5.0625 140.3925 -5.0625 132.4725 -5.0625 124.3125 C-2.3709375 123.3225 -2.3709375 123.3225 0.375 122.3125 C10.58077747 118.02102467 17.26902825 111.33774383 21.9375 101.3125 C26.18023143 90.80209713 26.6620847 79.13632675 22.875 68.4375 C17.83802979 56.9385344 10.65338327 50.24514535 -0.72509766 45.22583008 C-1.53693512 44.86709305 -2.34877258 44.50835602 -3.18521118 44.13874817 C-3.80471649 43.86608627 -4.4242218 43.59342438 -5.0625 43.3125 C-5.08714574 37.34936834 -5.105334 31.38626605 -5.11743164 25.4230957 C-5.12247278 23.39281702 -5.12930557 21.36254198 -5.13793945 19.33227539 C-5.15001467 16.42072653 -5.15573034 13.5092255 -5.16015625 10.59765625 C-5.16531754 9.6841188 -5.17047882 8.77058136 -5.17579651 7.82936096 C-5.17599168 5.65674573 -5.12461805 3.48422704 -5.0625 1.3125 C-3.52381092 -0.22618908 -2.15123391 0.06823613 0 0 Z " fill="#81BAF2" transform="translate(272.0625,86.6875)"/>
<path d="M0 0 C3.96 0 7.92 0 12 0 C12.44730469 0.94101562 12.89460938 1.88203125 13.35546875 2.8515625 C13.96570537 4.10958875 14.57640747 5.36738929 15.1875 6.625 C15.47947266 7.24246094 15.77144531 7.85992187 16.07226562 8.49609375 C19.26147223 15.01167714 23.04521016 19.79651977 29.3125 23.6875 C30.19550781 24.24824219 31.07851563 24.80898438 31.98828125 25.38671875 C38.592053 28.92414772 44.24291043 30.54148306 51.75 30.4375 C52.92961304 30.42396484 52.92961304 30.42396484 54.13305664 30.41015625 C65.83029863 30.0655214 75.43955969 26.08860502 84 18 C88.317776 12.50608392 91.53558778 6.52344412 94 0 C98.95 0 103.9 0 109 0 C106.65928229 11.70358853 100.60648582 22.19682749 94 32 C70.03441114 68.65816554 58.91322178 105.63637361 53 149 C35.51 149 18.02 149 0 149 C-0.3125 126.8125 -0.3125 126.8125 -0.38793945 119.83129883 C-0.42023503 117.99818898 -0.45360956 116.16509769 -0.48828125 114.33203125 C-0.49764709 112.91295471 -0.49764709 112.91295471 -0.50720215 111.46520996 C-0.61472725 106.54186344 -0.70494493 102.93939116 -4 99 C-7.17641497 96.88239002 -8.05011768 96.79599335 -11.6875 96.6875 C-18.57053915 96.10555208 -23.33222185 93.1255252 -27.875 88 C-32.37263032 81.65040426 -32.97028977 75.63360624 -32 68 C-29.7594871 62.26910131 -25.83582159 57.79567033 -20.22265625 55.16796875 C-15.90009997 53.43038672 -11.69811929 52.49131336 -7.078125 51.91796875 C-3.86454017 50.4984341 -2.37349945 48.11970324 -1 45 C-0.40788945 41.52345658 -0.39516258 38.09121671 -0.390625 34.5703125 C-0.37408875 33.57998016 -0.35755249 32.58964783 -0.34051514 31.56930542 C-0.29211671 28.42114 -0.27068189 25.27345739 -0.25 22.125 C-0.22183356 19.98435082 -0.1919052 17.84372405 -0.16015625 15.703125 C-0.0863596 10.46878975 -0.03673489 5.23472124 0 0 Z " fill="#F06573" transform="translate(267,256)"/>
<path d="M0 0 C6.32092089 2.83771593 11.03911514 7.96707265 13.71484375 14.34765625 C14.0234375 16.53125 14.0234375 16.53125 14.15234375 18.78515625 C14.5165566 22.67009335 15.24638613 25.21461389 17.71484375 28.34765625 C21.10289536 30.60635733 22.48835116 30.64025038 26.4765625 30.76171875 C27.48420654 30.7973291 28.49185059 30.83293945 29.5300293 30.86962891 C30.80789307 30.90362793 32.08575684 30.93762695 33.40234375 30.97265625 C37.46546875 31.09640625 41.52859375 31.22015625 45.71484375 31.34765625 C45.71484375 42.56765625 45.71484375 53.78765625 45.71484375 65.34765625 C42.74484375 66.66765625 39.77484375 67.98765625 36.71484375 69.34765625 C26.86256818 75.41059506 19.40286642 83.40832689 16.15234375 94.78515625 C14.0257244 107.24106959 15.8151777 119.50610139 22.52734375 130.28515625 C28.84600198 138.87164974 35.91065374 142.06847701 45.71484375 147.34765625 C45.71484375 158.23765625 45.71484375 169.12765625 45.71484375 180.34765625 C28.22484375 180.34765625 10.73484375 180.34765625 -7.28515625 180.34765625 C-7.82140625 176.05765625 -8.35765625 171.76765625 -8.91015625 167.34765625 C-13.99578861 129.35650373 -27.08654586 94.85598535 -48.12817383 62.90063477 C-63.28515625 39.60315472 -63.28515625 39.60315472 -63.28515625 31.34765625 C-62.46313721 31.34354736 -61.64111816 31.33943848 -60.79418945 31.33520508 C-57.06128583 31.30226382 -53.33001291 31.23161521 -49.59765625 31.16015625 C-48.30408203 31.15435547 -47.01050781 31.14855469 -45.67773438 31.14257812 C-44.43056641 31.11357422 -43.18339844 31.08457031 -41.8984375 31.0546875 C-40.75157471 31.03897705 -39.60471191 31.0232666 -38.4230957 31.00708008 C-34.38548523 30.15859444 -32.8878865 28.47312047 -30.28515625 25.34765625 C-29.16360734 23.10455844 -29.15649493 21.71009914 -29.03515625 19.22265625 C-28.34447306 12.61334942 -25.19502226 7.78877091 -20.22265625 3.47265625 C-13.87198938 -1.12144319 -7.69119098 -2.19560495 0 0 Z " fill="#9CCB6A" transform="translate(199.28515625,224.65234375)"/>
<path d="M0 0 C42.24 0 84.48 0 128 0 C128 6.93 128 13.86 128 21 C124.18888672 21.02126953 124.18888672 21.02126953 120.30078125 21.04296875 C117.83165325 21.07361003 115.36279261 21.11269307 112.89379883 21.15258789 C111.18198141 21.17574025 109.4700221 21.19015715 107.75805664 21.19555664 C105.29223502 21.20486703 102.82863626 21.24589779 100.36328125 21.29296875 C99.22080681 21.28706978 99.22080681 21.28706978 98.05525208 21.28105164 C94.08091071 21.38942433 92.20107253 21.84156966 89.04370117 24.3293457 C86.44989986 27.71885623 85.9252269 29.73793349 86 34 C88.22979668 38.25798376 88.22979668 38.25798376 92 41 C94.69655446 41.15676775 97.37129977 41.25836315 100.0703125 41.31640625 C101.26465408 41.3475779 101.26465408 41.3475779 102.48312378 41.37937927 C105.03032685 41.44484149 107.57763425 41.50374415 110.125 41.5625 C111.85027127 41.6056884 113.57553193 41.64930279 115.30078125 41.69335938 C119.53374685 41.80051945 123.76681753 41.90179623 128 42 C128.10854617 44.39706123 128.18753157 46.78915838 128.25 49.1875 C128.28351563 49.86103516 128.31703125 50.53457031 128.3515625 51.22851562 C128.4210224 54.78833544 128.11681007 56.81057128 126.234375 59.86328125 C122.75959766 63.18618895 120.09528476 64.24772199 115.30740356 64.26742554 C114.36819061 64.27595551 113.42897766 64.28448547 112.46130371 64.29327393 C110.9260907 64.29191437 110.9260907 64.29191437 109.35986328 64.29052734 C107.7348439 64.30060318 107.7348439 64.30060318 106.07699585 64.31088257 C102.49138823 64.32989932 98.90596742 64.33378862 95.3203125 64.3359375 C92.82933474 64.34236274 90.33835775 64.34909089 87.84738159 64.35610962 C82.62365977 64.36809151 77.40000413 64.37178949 72.17626953 64.37060547 C66.81221663 64.36953704 61.4484516 64.38362477 56.08447266 64.41162109 C49.60888805 64.4449386 43.13356227 64.45871752 36.65789413 64.45738602 C34.18993543 64.45974688 31.7219741 64.4685976 29.25406265 64.48405075 C25.80204798 64.50364217 22.35095524 64.4978988 18.89892578 64.48583984 C17.8794989 64.49707886 16.86007202 64.50831787 15.80975342 64.51989746 C9.89317038 64.46736643 6.49183463 63.9649013 2 60 C-0.45391569 56.31912647 -0.22802759 53.55644412 -0.125 49.3125 C-0.11597656 48.61060547 -0.10695312 47.90871094 -0.09765625 47.18554688 C-0.07413704 45.45688475 -0.03826713 43.72839855 0 42 C0.7052179 41.98969254 1.41043579 41.97938507 2.13702393 41.96876526 C8.78755443 41.87073102 15.43799888 41.76820821 22.08838272 41.66066074 C25.50729472 41.60552929 28.92621542 41.55212523 32.34521484 41.50268555 C36.27710613 41.44575324 40.20885636 41.38127763 44.140625 41.31640625 C45.36678528 41.29969376 46.59294556 41.28298126 47.85626221 41.26576233 C48.99714294 41.24581711 50.13802368 41.22587189 51.31347656 41.20532227 C52.31719299 41.18977798 53.32090942 41.1742337 54.3550415 41.15821838 C56.75574538 41.01461103 58.75296216 40.85453117 61 40 C62.8605199 35.99988222 63.55889313 32.37799615 63 28 C60.84909549 24.66238955 59.79587201 23.26529067 56 22 C54.17534101 21.88390641 52.34692114 21.82343471 50.51879883 21.79467773 C49.39786331 21.77473251 48.2769278 21.75478729 47.12202454 21.73423767 C45.30785286 21.70916893 45.30785286 21.70916893 43.45703125 21.68359375 C42.21829758 21.66281265 40.9795639 21.64203156 39.70329285 21.62062073 C36.41374744 21.56628203 33.12417274 21.51604049 29.83453369 21.46777344 C26.47622186 21.41749354 23.11799954 21.36184139 19.75976562 21.30664062 C13.1732462 21.19946949 6.58665911 21.09819524 0 21 C0 14.07 0 7.14 0 0 Z " fill="#EBE9F0" transform="translate(192,427)"/>
<path d="M0 0 C6.32092089 2.83771593 11.03911514 7.96707265 13.71484375 14.34765625 C14.0234375 16.53125 14.0234375 16.53125 14.15234375 18.78515625 C14.5165566 22.67009335 15.24638613 25.21461389 17.71484375 28.34765625 C21.10289536 30.60635733 22.48835116 30.64025038 26.4765625 30.76171875 C27.48420654 30.7973291 28.49185059 30.83293945 29.5300293 30.86962891 C30.80789307 30.90362793 32.08575684 30.93762695 33.40234375 30.97265625 C37.46546875 31.09640625 41.52859375 31.22015625 45.71484375 31.34765625 C45.71484375 42.56765625 45.71484375 53.78765625 45.71484375 65.34765625 C42.74484375 66.66765625 39.77484375 67.98765625 36.71484375 69.34765625 C30.78417342 72.99729953 25.84134341 76.59956432 22.08984375 82.53515625 C21.52007812 83.41558594 20.9503125 84.29601562 20.36328125 85.203125 C16.54399854 92.48872353 15.24925171 99.23760312 15.02734375 107.41015625 C14.99318359 108.27576172 14.95902344 109.14136719 14.92382812 110.03320312 C14.84244261 112.13760012 14.77694606 114.24260195 14.71484375 116.34765625 C0.10823643 102.30879692 -8.45879006 83.16716897 -16.36328125 64.82324219 C-19.77517848 57.01013737 -23.94546859 49.67636244 -28.28515625 42.34765625 C-28.91292969 41.28546875 -29.54070312 40.22328125 -30.1875 39.12890625 C-31.54135508 36.8608008 -32.90472656 34.59965136 -34.28515625 32.34765625 C-33.93582031 31.80238281 -33.58648437 31.25710937 -33.2265625 30.6953125 C-30.81533612 26.69937077 -29.03973435 23.49895722 -28.78515625 18.78515625 C-28.41235575 13.0117863 -25.78755534 8.87572098 -21.76171875 4.80859375 C-15.20910423 -0.8792087 -8.46153698 -2.41551569 0 0 Z " fill="#B4DF8B" transform="translate(199.28515625,224.65234375)"/>
<path d="M0 0 C18.15 0 36.3 0 55 0 C55 0.99 55 1.98 55 3 C56.99755909 3.79780561 58.99818885 4.58792425 61 5.375 C62.11375 5.81585938 63.2275 6.25671875 64.375 6.7109375 C72.49691163 9.59911728 79.5775379 10.32365988 88.15625 10.4140625 C89.29912476 10.43342865 90.44199951 10.4527948 91.61950684 10.4727478 C95.24626353 10.53221351 98.87305253 10.57879685 102.5 10.625 C104.96876334 10.66321014 107.43751378 10.70226361 109.90625 10.7421875 C115.93738494 10.83788779 121.96859848 10.92303071 128 11 C127.27655612 15.84463539 125.70029011 17.75096478 122 21 C119.63163073 22.18418463 118.19038117 22.13333704 115.5479126 22.14717102 C114.14321716 22.15790398 114.14321716 22.15790398 112.71014404 22.16885376 C111.67947815 22.17154266 110.64881226 22.17423157 109.58691406 22.17700195 C107.96233276 22.18685875 107.96233276 22.18685875 106.30493164 22.19691467 C102.70849545 22.21668055 99.11210108 22.22831769 95.515625 22.23828125 C94.28930107 22.24235678 93.06297714 22.2464323 91.79949188 22.25063133 C85.97851897 22.26935207 80.15756256 22.2839144 74.33656526 22.2922433 C68.28903863 22.30103948 62.24176302 22.32032609 56.19433594 22.35668945 C49.70810866 22.3950728 43.22210794 22.41392569 36.73577118 22.41844749 C34.26222241 22.42332376 31.78867743 22.43496711 29.31519318 22.45348549 C25.85341531 22.47779155 22.39250085 22.476927 18.93066406 22.4699707 C17.90809509 22.48278076 16.88552612 22.49559082 15.83197021 22.50878906 C9.90520871 22.46536553 6.49778891 21.97520918 2 18 C0 15 0 15 0 0 Z " fill="#D3D0DE" transform="translate(192,469)"/>
<path d="M0 0 C0.495 0.99 0.495 0.99 1 2 C0.29077148 3.83740234 0.29077148 3.83740234 -0.87890625 6.0859375 C-1.30292725 6.92390869 -1.72694824 7.76187988 -2.16381836 8.62524414 C-2.85616577 9.98637329 -2.85616577 9.98637329 -3.5625 11.375 C-16.97264674 38.73207438 -21.1658381 67.97830897 -15.75390625 97.9609375 C-15.62902832 98.65928711 -15.50415039 99.35763672 -15.37548828 100.07714844 C-15.04993693 101.74427617 -14.63973823 103.39444606 -14.21484375 105.0390625 C-14 108 -14 108 -17 116 C-24.26 116 -31.52 116 -39 116 C-42.33813882 99.30930589 -41.32054129 78.45356819 -37 62 C-36.81195801 61.28166992 -36.62391602 60.56333984 -36.43017578 59.82324219 C-30.01754145 36.44799117 -17.03474563 17.03474563 0 0 Z " fill="#FBC964" transform="translate(168,119)"/>
<path d="M0 0 C3.81357279 3.23324649 5.83136779 5.24622504 6.3125 10.25 C5.65965288 18.08416546 -0.78569475 23.06393429 -6.125 28.3125 C-6.85332031 29.04017578 -7.58164062 29.76785156 -8.33203125 30.51757812 C-15.01348226 37.1434533 -15.01348226 37.1434533 -20.25 37.375 C-23.80339568 37.35207487 -25.74740032 36.89656284 -28.5 34.625 C-31.43551421 31.54271008 -31.93219929 30.89835946 -32.25 26.6875 C-31.72985676 19.01538723 -25.7937576 14.45943007 -20.625 9.3125 C-19.86960937 8.54099609 -19.11421875 7.76949219 -18.3359375 6.97460938 C-17.59859375 6.23662109 -16.86125 5.49863281 -16.1015625 4.73828125 C-15.43463379 4.06837158 -14.76770508 3.39846191 -14.08056641 2.70825195 C-9.487869 -1.06258867 -5.70563229 -1.52829436 0 0 Z " fill="#000000" transform="translate(405,59)"/>
<path d="M0 0 C2.9992802 1.9928992 5.44898705 4.46979466 8 7 C9.12076817 8.08367016 10.24188919 9.16697546 11.36328125 10.25 C12.55617183 11.41514893 13.74757226 12.58182538 14.9375 13.75 C15.51773926 14.31686523 16.09797852 14.88373047 16.69580078 15.46777344 C20.31886556 19.08545796 21.79412897 21.18147258 22.375 26.3125 C21.87765929 31.20301701 20.42915508 32.57084492 17 36 C13.43043688 37.78478156 9.88170302 37.72742738 6 37 C2.84658667 35.15471605 0.52302177 32.61922017 -2 30 C-3.02955204 28.99820964 -4.0623349 27.99973306 -5.09765625 27.00390625 C-6.19131813 25.94135225 -7.28376586 24.87754712 -8.375 23.8125 C-8.89940674 23.30170898 -9.42381348 22.79091797 -9.96411133 22.26464844 C-13.77315579 18.45995291 -15.77995751 15.98038243 -16.375 10.625 C-15.92573223 6.2820782 -14.8337428 4.29326866 -12 1 C-7.87881394 -1.56181836 -4.59412291 -1.32373033 0 0 Z " fill="#000000" transform="translate(117,59)"/>
<path d="M0 0 C2.98965599 2.00604623 5.45095023 4.46805795 8 7 C9.04672009 8.02099217 10.09360657 9.04181377 11.140625 10.0625 C21.13804861 19.89125315 21.13804861 19.89125315 21.375 25.25 C21.32105895 28.59434537 20.97510877 30.76931271 19 33.5 C15.80596169 36.16169859 14.15228809 36.81790468 10.16015625 37.28515625 C3.02952288 36.34386107 -1.48438628 30.9372166 -6.25 26.0625 C-6.96929687 25.34642578 -7.68859375 24.63035156 -8.4296875 23.89257812 C-15.71910158 16.52808581 -15.71910158 16.52808581 -16.375 10.625 C-15.92573223 6.2820782 -14.8337428 4.29326866 -12 1 C-7.87881394 -1.56181836 -4.59412291 -1.32373033 0 0 Z " fill="#000000" transform="translate(389,331)"/>
<path d="M0 0 C3.81357279 3.23324649 5.83136779 5.24622504 6.3125 10.25 C5.68450389 17.78595326 -0.31434367 22.65188354 -5.4375 27.75 C-6.09298828 28.42160156 -6.74847656 29.09320313 -7.42382812 29.78515625 C-13.56829052 35.9357816 -13.56829052 35.9357816 -18 37 C-23.15446221 37 -25.01440711 36.82132741 -29 33.5 C-31.28886401 30.22347549 -31.85742402 27.23904594 -31.59375 23.27734375 C-30.42129838 18.78037469 -27.26147825 16.14694473 -24 13 C-23.00962705 11.97070262 -22.02288854 10.93790061 -21.0390625 9.90234375 C-19.98563142 8.80868424 -18.93094086 7.71623648 -17.875 6.625 C-17.37258789 6.10059326 -16.87017578 5.57618652 -16.35253906 5.03588867 C-11.14364237 -0.21324769 -7.28341461 -1.95091463 0 0 Z " fill="#000000" transform="translate(133,331)"/>
<path d="M0 0 C1.26714844 -0.02449219 2.53429687 -0.04898438 3.83984375 -0.07421875 C15.60717724 -0.11133968 15.60717724 -0.11133968 20.125 4.375 C22.13042966 7.24395744 22.39140265 9.36201218 22.0625 12.8125 C22.00964844 13.55371094 21.95679688 14.29492188 21.90234375 15.05859375 C20.74381905 18.51088092 18.92056422 20.07129363 16.125 22.375 C12.69921875 23.02197266 12.69921875 23.02197266 8.8125 23.0390625 C7.7754895 23.04623795 7.7754895 23.04623795 6.7175293 23.05355835 C5.26185824 23.05694736 3.80611004 23.0478145 2.35058594 23.02685547 C0.13042503 23.00006546 -2.08468261 23.02662647 -4.3046875 23.05859375 C-5.72396942 23.05528946 -7.14324821 23.04888281 -8.5625 23.0390625 C-9.84511719 23.03342285 -11.12773437 23.0277832 -12.44921875 23.02197266 C-16.71592118 22.21618863 -18.18584008 20.709433 -20.875 17.375 C-22.01281599 14.3600498 -22.16821813 11.57784422 -21.875 8.375 C-17.10935359 -1.33279824 -9.66427723 0.00977177 0 0 Z " fill="#000000" transform="translate(447.875,201.625)"/>
<path d="M0 0 C1.26714844 -0.02449219 2.53429687 -0.04898438 3.83984375 -0.07421875 C15.60717724 -0.11133968 15.60717724 -0.11133968 20.125 4.375 C22.13042966 7.24395744 22.39140265 9.36201218 22.0625 12.8125 C22.00964844 13.55371094 21.95679688 14.29492188 21.90234375 15.05859375 C20.74381905 18.51088092 18.92056422 20.07129363 16.125 22.375 C12.69921875 23.02197266 12.69921875 23.02197266 8.8125 23.0390625 C7.7754895 23.04623795 7.7754895 23.04623795 6.7175293 23.05355835 C5.26185824 23.05694736 3.80611004 23.0478145 2.35058594 23.02685547 C0.13042503 23.00006546 -2.08468261 23.02662647 -4.3046875 23.05859375 C-5.72396942 23.05528946 -7.14324821 23.04888281 -8.5625 23.0390625 C-9.84511719 23.03342285 -11.12773438 23.0277832 -12.44921875 23.02197266 C-16.71592118 22.21618863 -18.18584008 20.709433 -20.875 17.375 C-22.01281599 14.3600498 -22.16821813 11.57784422 -21.875 8.375 C-17.10935359 -1.33279824 -9.66427723 0.00977177 0 0 Z " fill="#000000" transform="translate(63.875,201.625)"/>
<path d="M0 0 C2.82424288 2.19022918 4.41508603 3.83017207 6 7 C6.28074936 11.06695651 6.31364466 15.13558725 6.35009766 19.21142578 C6.36661388 20.56348943 6.39384766 21.91546732 6.43212891 23.26708984 C6.78886736 35.93906027 6.78886736 35.93906027 3.6015625 39.859375 C0.01483685 42.81061473 -2.1960635 43.39360792 -6.89453125 43.359375 C-10.61593453 42.72418186 -12.40312849 40.66020984 -15 38 C-17.09447748 33.81104504 -16.26787624 28.39664794 -16.29516602 23.78857422 C-16.31232051 21.77110916 -16.35619871 19.75530907 -16.40039062 17.73828125 C-16.40876953 16.45824219 -16.41714844 15.17820312 -16.42578125 13.859375 C-16.44036377 12.68858398 -16.45494629 11.51779297 -16.4699707 10.31152344 C-15.90103291 6.30265474 -14.50376595 4.14259768 -12 1 C-8.28546768 -0.85726616 -4.04420575 -0.58501089 0 0 Z " fill="#000000" transform="translate(261,0)"/>
<path d="M0 0 C3.155625 1.299375 3.155625 1.299375 6.375 2.625 C13.83809875 5.52212564 21.4597974 7.50069533 29.25 9.3125 C30.32556152 9.56660645 31.40112305 9.82071289 32.50927734 10.08251953 C39.68284481 11.6957771 46.66181026 12.53172213 54 13 C53.67 16.63 53.34 20.26 53 24 C35.51 24 18.02 24 0 24 C0 16.08 0 8.16 0 0 Z " fill="#DB5669" transform="translate(267,381)"/>
<path d="M0 0 C7.26 0 14.52 0 22 0 C25.4375 9.375 25.4375 9.375 26.51733398 12.32568359 C26.79907471 13.09219238 27.08081543 13.85870117 27.37109375 14.6484375 C27.65911865 15.43395996 27.94714355 16.21948242 28.24389648 17.02880859 C28.97610705 19.03323485 28.97610705 19.03323485 30 21 C20.1 21 10.2 21 0 21 C0 14.07 0 7.14 0 0 Z " fill="#DAD7E5" transform="translate(192,427)"/>
</svg>
