<?xml version="1.0" encoding="UTF-8"?>
<svg version="1.1" xmlns="http://www.w3.org/2000/svg" width="368" height="368">
<path d="M0 0 C1.17156143 -0.01052147 1.17156143 -0.01052147 2.36679077 -0.02125549 C4.8734927 -0.03866725 7.37995857 -0.04510767 9.88671875 -0.046875 C11.16985458 -0.04788712 11.16985458 -0.04788712 12.47891235 -0.04891968 C24.75865411 -0.03349993 36.58887861 0.29673623 48.57421875 3.203125 C49.73244141 3.46851074 49.73244141 3.46851074 50.9140625 3.73925781 C84.33201838 11.47885639 113.22813859 27.29716343 138.51171875 50.390625 C139.27307129 51.08466431 139.27307129 51.08466431 140.04980469 51.79272461 C170.98694244 80.68598261 192.283432 124.8121621 194.68809509 167.21098328 C194.75352512 169.29204404 194.79039451 171.37115495 194.8125 173.453125 C194.82229385 174.22044952 194.83208771 174.98777405 194.84217834 175.77835083 C195.01914481 193.25321115 194.76209684 210.12749334 190.57421875 227.203125 C190.36522949 228.05922363 190.15624023 228.91532227 189.94091797 229.79736328 C182.47845436 259.17207958 167.91076585 286.73075157 146.96875 308.69140625 C145.01152907 310.74441287 143.18209164 312.82343115 141.38671875 315.015625 C114.98565404 346.23677999 69.36110987 364.26009533 29.57421875 368.203125 C26.82403783 368.35910242 24.07841164 368.41214333 21.32421875 368.44140625 C20.55703018 368.45124542 19.78984161 368.46108459 18.99940491 368.47122192 C-20.44032968 368.87241772 -57.07026714 361.22370078 -90.42578125 339.203125 C-91.31040039 338.62159668 -91.31040039 338.62159668 -92.21289062 338.02832031 C-103.40951657 330.57407807 -112.93901348 321.70559934 -122.42578125 312.203125 C-123.04839844 311.6153125 -123.67101562 311.0275 -124.3125 310.421875 C-153.8750612 282.20598145 -172.55810276 236.91327926 -173.65475464 196.43048096 C-173.74429091 192.16734165 -173.77746005 187.90456908 -173.80078125 183.640625 C-173.812836 182.41342743 -173.812836 182.41342743 -173.82513428 181.16143799 C-173.94322445 165.29003878 -172.26217304 149.74675916 -167.61328125 134.515625 C-167.22209106 133.20368164 -167.22209106 133.20368164 -166.82299805 131.86523438 C-166.04578332 129.30367683 -165.24337161 126.75205294 -164.42578125 124.203125 C-164.08788574 123.14230713 -164.08788574 123.14230713 -163.74316406 122.06005859 C-156.1874254 98.91284426 -143.09494484 77.84709347 -126.42578125 60.203125 C-125.29615892 58.87370552 -124.17098813 57.54048782 -123.05078125 56.203125 C-93.60981496 22.67127273 -44.62582911 0.26885998 0 0 Z " fill="#FAB247" transform="translate(173.42578125,-0.203125)"/>
<path d="M0 0 C5.23475836 0.86236858 8.84983211 2.99325366 13.3125 5.75 C14.49585938 6.47775635 14.49585938 6.47775635 15.703125 7.22021484 C24.03827572 12.46969276 31.55928378 18.56712236 39 25 C39.98097656 25.83917969 40.96195312 26.67835937 41.97265625 27.54296875 C47.10024024 32.03637192 51.6819674 36.73097212 56 42 C56.43570313 42.51804199 56.87140625 43.03608398 57.3203125 43.56982422 C74.06864056 63.50324542 86.49131694 86.74775885 93.6875 111.8125 C93.87787842 112.46202637 94.06825684 113.11155273 94.2644043 113.78076172 C98.06290594 127.69921387 99.50245584 141.597914 99.39111328 155.97680664 C99.37502507 158.43367161 99.39108273 160.8888871 99.41015625 163.34570312 C99.42890129 177.56452626 97.58653127 191.2444947 94 205 C85.46555242 203.64534308 77.24689316 201.53779757 68.9375 199.1875 C67.64263036 198.82520571 66.34762547 198.46339446 65.05249023 198.10205078 C61.36700354 197.07272772 57.68356819 196.03616767 54 195 C50.85499022 194.12202278 47.70887244 193.24807908 44.5625 192.375 C43.87051514 192.18244629 43.17853027 191.98989258 42.46557617 191.79150391 C33.92420425 189.41686166 25.36869979 187.09384972 16.81445312 184.76611328 C12.20915088 183.51251869 7.60460902 182.256138 3 181 C1.16667042 180.49998622 -0.66666291 179.99998623 -2.5 179.5 C-6.16666667 178.5 -9.83333333 177.5 -13.5 176.5 C-14.40733887 176.25258057 -15.31467773 176.00516113 -16.24951172 175.75024414 C-18.08454779 175.24970572 -19.91950866 174.74889149 -21.75439453 174.24780273 C-26.31110231 173.00377868 -30.86897661 171.7644296 -35.4296875 170.53515625 C-49.00625479 166.86785263 -62.51249532 162.98195753 -76 159 C-75.3917693 155.25050589 -74.3142589 152.22787084 -72.6484375 148.8203125 C-72.13901611 147.77117676 -71.62959473 146.72204102 -71.10473633 145.64111328 C-70.53392334 144.4807959 -69.96311035 143.32047852 -69.375 142.125 C-68.76082709 140.86595901 -68.14715697 139.60667266 -67.53393555 138.34716797 C-65.76467076 134.71761406 -63.98755109 131.09194966 -62.20928955 127.46679688 C-60.00957149 122.97965181 -57.81591149 118.4895434 -55.62109375 114 C-52.18774665 106.97879191 -48.75195141 99.95878855 -45.31384277 92.93991089 C-39.61229102 81.29988181 -33.92420245 69.6533843 -28.25 58 C-27.87198242 57.22367218 -27.49396484 56.44734436 -27.10449219 55.64749146 C-25.58478881 52.52632903 -24.06522017 49.40510107 -22.54586792 46.2837677 C-18.23483684 37.4272676 -13.92040391 28.57242524 -9.6060791 19.7175293 C-7.56670937 15.53178884 -5.52749865 11.34597092 -3.48828125 7.16015625 C-2.80639729 5.76049766 -2.12451261 4.36083941 -1.44262695 2.96118164 C-0.96656006 1.9839917 -0.49049316 1.00680176 0 0 Z " fill="#91ABEE" transform="translate(264,24)"/>
<path d="M0 0 C1.24862572 -0.00855011 1.24862572 -0.00855011 2.5224762 -0.01727295 C4.27628334 -0.02665669 6.03010759 -0.0332303 7.78393555 -0.03710938 C10.40381594 -0.04673686 13.02288361 -0.07779161 15.64257812 -0.109375 C31.92283655 -0.21438849 46.91788829 2.09289109 62.44140625 7.078125 C63.50810547 7.40425781 64.57480469 7.73039063 65.67382812 8.06640625 C72.71431868 10.27434533 79.36115084 12.99525281 86.00390625 16.203125 C85.39596355 20.06971037 84.22987788 23.09273963 82.44921875 26.5703125 C81.91554687 27.62347656 81.381875 28.67664063 80.83203125 29.76171875 C80.27 30.85613281 79.70796875 31.95054688 79.12890625 33.078125 C74.90683739 41.34547659 70.80814547 49.65792704 66.81640625 58.0390625 C61.44667715 69.31294486 55.96847672 80.53125326 50.45944214 91.73760986 C47.73037684 97.28974622 45.00585835 102.84411295 42.28125 108.3984375 C41.7428096 109.49598358 41.2043692 110.59352966 40.64961243 111.72433472 C35.8959513 121.41706304 31.16046579 131.11850816 26.44140625 140.828125 C25.94770538 141.8424762 25.94770538 141.8424762 25.44403076 142.87731934 C24.50316224 144.81086593 23.56373969 146.74510656 22.625 148.6796875 C22.33137573 149.28373413 22.03775146 149.88778076 21.73522949 150.51013184 C20.06681078 153.95682117 18.43707051 157.418737 16.83642578 160.89746094 C16.47404312 161.68124115 16.11166046 162.46502136 15.73829651 163.27255249 C15.03513331 164.79705657 14.33727384 166.32402089 13.64537048 167.85366821 C11.22619677 173.09197974 11.22619677 173.09197974 9.00390625 174.203125 C8.30007812 173.08679688 7.59625 171.97046875 6.87109375 170.8203125 C1.26668756 161.93640489 -4.35271656 153.0623339 -9.99609375 144.203125 C-14.34335266 137.378511 -18.67952235 130.54719102 -22.99609375 123.703125 C-29.0418339 114.11878353 -35.12589337 104.55901849 -41.21386719 95.00146484 C-43.56048271 91.31695701 -45.90570163 87.63156151 -48.25073242 83.94604492 C-49.41478915 82.11667335 -50.57901456 80.2874091 -51.7434082 78.45825195 C-54.67568849 73.85166951 -57.60566809 69.24365233 -60.53125 64.6328125 C-61.11519531 63.7135498 -61.69914062 62.79428711 -62.30078125 61.84716797 C-63.46281015 60.01664967 -64.62299965 58.18496227 -65.78125 56.35205078 C-68.73445941 51.69319514 -71.73804799 47.07978096 -74.8359375 42.515625 C-75.45009521 41.60184082 -76.06425293 40.68805664 -76.69702148 39.74658203 C-77.87185606 38.00401968 -79.05967159 36.27011972 -80.26196289 34.54638672 C-80.78266357 33.77053223 -81.30336426 32.99467773 -81.83984375 32.1953125 C-82.30583984 31.51839355 -82.77183594 30.84147461 -83.25195312 30.14404297 C-83.99609375 28.203125 -83.99609375 28.203125 -83.3293457 26.08349609 C-81.15796835 23.02106277 -77.9522831 21.62308315 -74.68359375 19.953125 C-73.92941162 19.56471436 -73.17522949 19.17630371 -72.39819336 18.77612305 C-50.05382124 7.55950798 -25.12101737 0.13828594 0 0 Z " fill="#C9D4F2" transform="translate(173.99609375,4.796875)"/>
<path d="M0 0 C1.17156143 -0.01052147 1.17156143 -0.01052147 2.36679077 -0.02125549 C4.8734927 -0.03866725 7.37995857 -0.04510767 9.88671875 -0.046875 C11.16985458 -0.04788712 11.16985458 -0.04788712 12.47891235 -0.04891968 C24.75865411 -0.03349993 36.58887861 0.29673623 48.57421875 3.203125 C49.73244141 3.46851074 49.73244141 3.46851074 50.9140625 3.73925781 C84.33201838 11.47885639 113.22813859 27.29716343 138.51171875 50.390625 C139.27307129 51.08466431 139.27307129 51.08466431 140.04980469 51.79272461 C170.98694244 80.68598261 192.283432 124.8121621 194.68809509 167.21098328 C194.75352512 169.29204404 194.79039451 171.37115495 194.8125 173.453125 C194.82229385 174.22044952 194.83208771 174.98777405 194.84217834 175.77835083 C195.01914481 193.25321115 194.76209684 210.12749334 190.57421875 227.203125 C190.36522949 228.05922363 190.15624023 228.91532227 189.94091797 229.79736328 C182.47845436 259.17207958 167.91076585 286.73075157 146.96875 308.69140625 C145.01152907 310.74441287 143.18209164 312.82343115 141.38671875 315.015625 C114.98565404 346.23677999 69.36110987 364.26009533 29.57421875 368.203125 C26.82403783 368.35910242 24.07841164 368.41214333 21.32421875 368.44140625 C20.55703018 368.45124542 19.78984161 368.46108459 18.99940491 368.47122192 C-20.44032968 368.87241772 -57.07026714 361.22370078 -90.42578125 339.203125 C-91.31040039 338.62159668 -91.31040039 338.62159668 -92.21289062 338.02832031 C-103.40951657 330.57407807 -112.93901348 321.70559934 -122.42578125 312.203125 C-123.04839844 311.6153125 -123.67101562 311.0275 -124.3125 310.421875 C-153.8750612 282.20598145 -172.55810276 236.91327926 -173.65475464 196.43048096 C-173.74429091 192.16734165 -173.77746005 187.90456908 -173.80078125 183.640625 C-173.812836 182.41342743 -173.812836 182.41342743 -173.82513428 181.16143799 C-173.94322445 165.29003878 -172.26217304 149.74675916 -167.61328125 134.515625 C-167.22209106 133.20368164 -167.22209106 133.20368164 -166.82299805 131.86523438 C-166.04578332 129.30367683 -165.24337161 126.75205294 -164.42578125 124.203125 C-164.08788574 123.14230713 -164.08788574 123.14230713 -163.74316406 122.06005859 C-156.1874254 98.91284426 -143.09494484 77.84709347 -126.42578125 60.203125 C-125.29615892 58.87370552 -124.17098813 57.54048782 -123.05078125 56.203125 C-93.60981496 22.67127273 -44.62582911 0.26885998 0 0 Z M-36.86328125 10.390625 C-37.63003174 10.5978418 -38.39678223 10.80505859 -39.18676758 11.01855469 C-54.60122071 15.37050358 -68.74318701 21.94770501 -82.42578125 30.203125 C-82.42578125 34.19502286 -82.31593222 34.87079739 -80.29296875 37.9765625 C-79.82391113 38.70721924 -79.35485352 39.43787598 -78.87158203 40.19067383 C-78.09403564 41.37246216 -78.09403564 41.37246216 -77.30078125 42.578125 C-76.19134315 44.29813639 -75.08197073 46.01819014 -73.97265625 47.73828125 C-73.38935547 48.63562988 -72.80605469 49.53297852 -72.20507812 50.45751953 C-69.2891374 54.95706254 -66.42360288 59.48848503 -63.55078125 64.015625 C-62.3662637 65.87654292 -61.18136495 67.73721826 -59.99609375 69.59765625 C-55.88882556 76.04568597 -51.78473067 82.49573302 -47.68066406 88.94580078 C-44.7399022 93.56735024 -41.79841793 98.18843678 -38.85546875 102.80859375 C-32.87363071 112.20112892 -26.90480103 121.60149173 -20.96435547 131.02026367 C-16.55129383 138.01357223 -12.11025698 144.98892303 -7.66748047 151.96337891 C-1.89569072 161.0278112 3.84302339 170.11298731 9.57421875 179.203125 C12.21867 177.88089938 12.50732393 176.60985901 13.74951172 173.94433594 C14.17668488 173.03774231 14.60385803 172.13114868 15.04397583 171.19708252 C15.50512787 170.20392029 15.96627991 169.21075806 16.44140625 168.1875 C17.43999051 166.06784542 18.43970242 163.94872179 19.44042969 161.83007812 C19.95810913 160.73155518 20.47578857 159.63303223 21.00915527 158.5012207 C23.46685795 153.32204505 25.99037458 148.17582074 28.51953125 143.03125 C29.01879623 142.01431061 29.51806122 140.99737122 30.03245544 139.94961548 C31.05949722 137.85831471 32.08696224 135.76722173 33.11483765 133.67633057 C35.86323864 128.08508654 38.60747675 122.49180035 41.3515625 116.8984375 C41.89289322 115.79511078 42.43422394 114.69178406 42.99195862 113.55502319 C48.09570996 103.14822036 53.166019 92.72542031 58.21508789 82.29199219 C61.76907564 74.95259117 65.34618804 67.62523012 68.95225525 60.31124878 C71.00948278 56.13861058 73.06270978 51.96400782 75.11611938 47.78948975 C76.12420081 45.74338407 77.13441125 43.69832586 78.14682007 41.65435791 C79.55625695 38.80858483 80.95850665 35.95937344 82.359375 33.109375 C82.7865683 32.25177582 83.2137616 31.39417664 83.65390015 30.5105896 C84.04018585 29.72141144 84.42647156 28.93223328 84.82446289 28.11914062 C85.16401505 27.43194946 85.5035672 26.7447583 85.85340881 26.03674316 C86.75714605 24.06615712 86.75714605 24.06615712 86.57421875 21.203125 C78.35527377 17.31443872 70.0028583 14.21730807 61.32421875 11.515625 C60.43404053 11.23066162 59.5438623 10.94569824 58.62670898 10.65209961 C43.99661143 6.21524093 29.40461244 4.69738967 14.17016602 4.81201172 C11.64088888 4.82809848 9.1132139 4.8120462 6.58398438 4.79296875 C-8.11517353 4.7738555 -22.65567188 6.51255808 -36.86328125 10.390625 Z M90.57421875 24.203125 C88.79956842 27.72204582 87.03033094 31.24366607 85.26171875 34.765625 C84.78154297 35.71759766 84.30136719 36.66957031 83.80664062 37.65039062 C80.25739301 44.72627918 76.81989341 51.85029861 73.4140625 58.99609375 C68.03336381 70.28262216 62.54672715 81.51512313 57.03057861 92.73596191 C54.29737002 98.29647852 51.56862579 103.85918508 48.83984375 109.421875 C48.300784 110.52065979 47.76172424 111.61944458 47.20632935 112.75152588 C40.86042645 125.69090339 34.54923259 138.64700444 28.27574158 151.62164307 C26.78792987 154.69845723 25.29740615 157.77387823 23.79931641 160.84570312 C22.1984119 164.12909272 20.60423187 167.41565944 19.01171875 170.703125 C18.55168457 171.64188477 18.09165039 172.58064453 17.61767578 173.54785156 C17.00641846 174.81580566 17.00641846 174.81580566 16.3828125 176.109375 C16.03017334 176.83447266 15.67753418 177.55957031 15.31420898 178.30664062 C14.39246908 180.32963218 14.39246908 180.32963218 14.57421875 183.203125 C28.31462903 187.31825406 42.09562199 191.16877374 55.9934082 194.71704102 C62.71659087 196.44057391 69.38040087 198.27861543 76.02099609 200.29394531 C82.51259009 202.23843923 89.0715639 203.9018859 95.63671875 205.578125 C105.51552611 208.10312383 115.32432673 210.79898693 125.09399414 213.71826172 C131.54837407 215.64197924 138.03465285 217.40891993 144.54589844 219.13012695 C148.7558337 220.24628026 152.95442547 221.40209623 157.15234375 222.5625 C158.59373197 222.95970085 160.03513823 223.35683623 161.4765625 223.75390625 C163.67582417 224.35993164 165.87472529 224.96715277 168.07275391 225.57763672 C170.24416934 226.18025539 172.41686138 226.77806015 174.58984375 227.375 C175.86118164 227.7265918 177.13251953 228.07818359 178.44238281 228.44042969 C181.52279259 229.32143221 181.52279259 229.32143221 184.57421875 229.203125 C185.22622145 226.39193196 185.87091996 223.57937469 186.51171875 220.765625 C186.69412109 219.98251953 186.87652344 219.19941406 187.06445312 218.39257812 C187.33032227 217.21791992 187.33032227 217.21791992 187.6015625 216.01953125 C187.76390381 215.31256104 187.92624512 214.60559082 188.09350586 213.87719727 C189.3148383 207.08326418 189.73829148 200.31901576 189.77734375 193.42578125 C189.78304382 192.61556015 189.7887439 191.80533905 189.7946167 190.9705658 C189.80399799 189.26383744 189.81057305 187.55709153 189.81445312 185.8503418 C189.82407799 183.30287996 189.85513388 180.75625498 189.88671875 178.20898438 C189.98304045 163.40261738 188.14096024 149.12138621 183.94921875 134.890625 C183.69615967 134.0258252 183.44310059 133.16102539 183.18237305 132.27001953 C175.26950848 106.27563737 161.91261242 83.27183842 143.52734375 63.34375 C141.94519267 61.60971242 140.46474994 59.85613118 139.01171875 58.015625 C135.82273484 54.33602818 132.31744202 51.30810283 128.57421875 48.203125 C128.05037598 47.76162109 127.5265332 47.32011719 126.98681641 46.86523438 C118.00090548 39.31676604 108.77337752 32.9908404 98.57421875 27.203125 C97.66929687 26.62691406 96.764375 26.05070312 95.83203125 25.45703125 C93.56754344 23.96036775 93.56754344 23.96036775 90.57421875 24.203125 Z M-89.42578125 34.203125 C-91.59365481 35.58351013 -93.5015411 36.96863222 -95.48828125 38.578125 C-96.06537842 39.03421143 -96.64247559 39.49029785 -97.23706055 39.96020508 C-101.69833706 43.52269187 -105.97969143 47.26470568 -110.171875 51.140625 C-112.16595815 52.9653666 -114.21301626 54.6758283 -116.30078125 56.390625 C-146.39699411 82.86078812 -165.12669521 125.77623633 -168.42578125 165.203125 C-168.76437199 171.2618879 -168.76891447 177.3242321 -168.73828125 183.390625 C-168.73546143 184.20149567 -168.7326416 185.01236633 -168.72973633 185.84780884 C-168.58576015 213.4813874 -163.39720894 239.52018754 -150.42578125 264.203125 C-149.80313186 265.44974505 -149.18208173 266.69716495 -148.5625 267.9453125 C-143.99401618 276.99324615 -138.56650445 285.15245261 -132.42578125 293.203125 C-131.75289062 294.10160156 -131.08 295.00007813 -130.38671875 295.92578125 C-102.15661581 332.05813309 -59.88887087 356.09960979 -14.60620117 362.76538086 C-10.35127038 363.26699268 -6.13275998 363.38090617 -1.8515625 363.40625 C-1.05406586 363.41340027 -0.25656921 363.42055054 0.56509399 363.42791748 C50.97486209 363.77695199 96.34972934 350.64731274 133.57421875 315.203125 C134.38294434 314.43524658 134.38294434 314.43524658 135.20800781 313.65185547 C157.06224744 292.76769516 174.08928152 266.38616669 182.57421875 237.203125 C182.57421875 235.883125 182.57421875 234.563125 182.57421875 233.203125 C181.48049957 232.90483795 180.3867804 232.6065509 179.25991821 232.29922485 C178.52243536 232.09809302 177.78495251 231.89696119 177.02512169 231.68973446 C175.32512122 231.22609826 173.62512044 230.76246318 171.9251194 230.29882908 C166.98805682 228.9523629 162.05100013 227.60587513 157.11395264 226.25935364 C147.07893684 223.52244457 137.04387973 220.78568735 127.00863838 218.04960537 C121.32734799 216.50061174 115.64608793 214.95150686 109.96484375 213.40234375 C108.83361965 213.0938833 107.70239555 212.78542286 106.53689194 212.46761513 C92.69679193 208.69351628 78.85782086 204.91533748 65.02099991 201.12923431 C60.43760909 199.87528784 55.85394099 198.62235526 51.27027702 197.36940765 C47.11116768 196.23234666 42.95257357 195.09342542 38.7943573 193.95310307 C35.6667442 193.09598131 32.53839002 192.24157197 29.41015625 191.38671875 C28.32716248 191.08901077 27.2441687 190.7913028 26.12835693 190.48457336 C24.62115082 190.07346565 24.62115082 190.07346565 23.08349609 189.65405273 C22.1494696 189.39719696 21.21544312 189.14034119 20.25311279 188.8757019 C17.66451054 188.22579412 15.08844822 187.76855559 12.45947266 187.31665039 C10.2840271 186.8508606 10.2840271 186.8508606 8.57421875 186.203125 C7.18457031 183.86108398 7.18457031 183.86108398 6.57421875 181.203125 C5.6910873 179.67101561 4.76666176 178.16218161 3.80859375 176.67578125 C3.25558594 175.81275391 2.70257813 174.94972656 2.1328125 174.06054688 C1.53597656 173.13822266 0.93914062 172.21589844 0.32421875 171.265625 C-0.95193444 169.27741533 -2.22797295 167.28913204 -3.50390625 165.30078125 C-4.15681641 164.2864502 -4.80972656 163.27211914 -5.48242188 162.22705078 C-8.47993883 157.56282402 -11.45233725 152.88271937 -14.42578125 148.203125 C-15.59231079 146.36970441 -16.75897789 144.53637134 -17.92578125 142.703125 C-52.92578125 87.703125 -52.92578125 87.703125 -54.67700195 84.95117188 C-55.83955745 83.12432213 -57.00215487 81.29749906 -58.16479492 79.47070312 C-61.75549603 73.82867621 -65.34468647 68.18569238 -68.93237305 62.54174805 C-70.69087203 59.77764535 -72.45278782 57.01574231 -74.21484375 54.25390625 C-76.22809639 51.09575771 -78.22403358 47.92817621 -80.19921875 44.74609375 C-80.61260498 44.08609375 -81.02599121 43.42609375 -81.4519043 42.74609375 C-82.52554795 41.03079173 -83.59125709 39.31053019 -84.65625 37.58984375 C-86.26989764 34.93634101 -86.26989764 34.93634101 -89.42578125 34.203125 Z " fill="#080705" transform="translate(173.42578125,-0.203125)"/>
</svg>
